# xmcd CD database file
#
# Track frame offsets:
#	150
#	25404
#	57784
#	75678
#	102892
#	127352
#	147343
#	171180
#	205145
#	225868
#	255860
#	273702
#
# Disc length: 4004 seconds
#
# Revision: 33
# Processed by: cddbd v1.5.2PL0 Copyright (c) Steve Scherf et al.
# Submitted via: CDex 1.51
#
DISCID=a30fa20c
DTITLE=Chris Farlowe - At Rockpalast
DYEAR=2006
DGENRE=Blues
TTITLE0=Blues As Blues Can Get
TTITLE1=I'll Sing The Blues For You
TTITLE2=I Don't Want To Sing The Blues No More
TTITLE3=Handbags and Gladrags
TTITLE4=Piece Of Mind
TTITLE5=Lovin' Arms
TTITLE6=Ain't No Big Deal On You
TTITLE7=Tough On Me, Tough On You
TTITLE8=Out Of Time
TTITLE9=Miss You Fever
TTITLE10=All Or Nothing
TTITLE11=Rock'n'Roll Soldier
EXTD=Recorded at the Crossroads-Festival at Harmonie Bonn, March 22, 2006 YEAR: 2006
EXTT0=
EXTT1=
EXTT2=
EXTT3=
EXTT4=
EXTT5=
EXTT6=
EXTT7=
EXTT8=
EXTT9=
EXTT10=
EXTT11=
PLAYORDER=
